<svg width="195" height="207" viewBox="0 0 195 207" fill="none" xmlns="http://www.w3.org/2000/svg">
<path fill-rule="evenodd" clip-rule="evenodd" d="M184.144 22H10.8555C7.97917 22 5.21903 20.8432 3.18258 18.7812C1.14583 16.719 0 13.9202 0 11C0 8.07978 1.14583 5.28097 3.18258 3.21876C5.21903 1.15684 7.97917 0 10.8555 0H184.144C187.021 0 189.781 1.15684 191.817 3.21876C193.854 5.28097 195 8.07978 195 11C195 13.9202 193.854 16.719 191.817 18.7812C189.781 20.8432 187.021 22 184.144 22ZM10.8555 76H184.144C187.021 76 189.781 77.1568 191.817 79.2188C193.854 81.281 195 84.0798 195 87C195 89.9202 193.854 92.719 191.817 94.7812C189.781 96.8432 187.021 98 184.144 98H10.8555C7.97917 98 5.21903 96.8432 3.18258 94.7812C1.14583 92.719 0 89.9202 0 87C0 84.0798 1.14583 81.281 3.18258 79.2188C5.21903 77.1568 7.97917 76 10.8555 76ZM184.376 151.875H161.124V128.63C161.124 125.808 160.003 123.103 158.009 121.11C156.016 119.118 153.315 118 150.5 118C147.685 118 144.984 119.118 142.991 121.11C140.997 123.103 139.876 125.808 139.876 128.63V151.875H116.624C113.809 151.875 111.108 152.993 109.115 154.985C107.121 156.978 106 159.682 106 162.504C106 165.326 107.121 168.031 109.115 170.024C111.108 172.016 113.809 173.134 116.624 173.134H139.876V196.37C139.876 199.192 140.997 201.897 142.991 203.89C144.984 205.882 147.685 207 150.5 207C153.315 207 156.016 205.882 158.009 203.89C160.003 201.897 161.124 199.192 161.124 196.37V173.134H184.376C187.191 173.134 189.892 172.016 191.885 170.024C193.879 168.031 195 165.326 195 162.504C195 159.682 193.879 156.978 191.885 154.985C189.892 152.993 187.191 151.875 184.376 151.875ZM10.863 152H80.137C83.0154 152 85.7774 153.104 87.8152 155.072C89.8534 157.041 91 159.713 91 162.5C91 165.287 89.8534 167.959 87.8152 169.928C85.7774 171.896 83.0154 173 80.137 173H10.863C7.98465 173 5.22261 171.896 3.18476 169.928C1.14662 167.959 0 165.287 0 162.5C0 159.713 1.14662 157.041 3.18476 155.072C5.22261 153.104 7.98465 152 10.863 152Z" fill="#F2F2F2"/>
</svg>
