<svg width="215" height="223" viewBox="0 0 215 223" fill="none" xmlns="http://www.w3.org/2000/svg">
<path d="M199.813 223H15.1378C13.0498 223.001 10.9836 222.588 9.06523 221.786C7.14683 220.985 5.41647 219.812 3.97976 218.338C2.61123 216.921 1.55467 215.247 0.874885 213.419C0.1951 211.591 -0.0935821 209.647 0.0265217 207.707C0.807286 195.279 4.25648 184.638 10.2753 176.16C18.0632 165.154 29.1619 159.089 38.9363 153.735C48.177 148.679 56.4293 144.018 63.8614 138.222C76.324 128.494 71.4516 122.323 69.0994 119.363C58.0501 105.387 51.7842 90.9494 49.9361 75.2336C48.1967 60.508 50.371 44.8307 55.866 32.2197C64.7607 11.919 83.4695 0.173017 107.189 0H108.335C131.719 0.173017 150.833 12.2362 159.559 32.2485C165.025 44.8499 167.179 60.5079 165.489 75.2144C163.661 90.9301 157.444 105.358 146.504 119.324C144.349 122.073 139.319 128.504 151.683 138.241C159.055 144.008 167.219 148.699 176.39 153.755C185.562 158.81 197.145 165.183 204.824 176.199C210.754 184.686 214.193 195.298 214.974 207.707C215.093 209.649 214.804 211.594 214.124 213.423C213.444 215.253 212.388 216.928 211.021 218.348C209.577 219.825 207.839 221 205.911 221.8C203.984 222.6 201.909 223.009 199.813 223ZM20.3165 203.776H194.684C193.946 197.803 191.817 192.073 188.458 187.022C183.328 179.697 174.819 175.007 166.606 170.47C157.049 165.193 147.759 159.897 139.24 153.168C122.438 139.913 119.167 122.467 130.77 107.655C139.497 96.5243 144.418 85.2013 145.842 73.0517C147.166 61.6902 145.496 49.2329 141.365 39.7266C133.695 22.05 117.289 19.2914 108.197 19.2241H107.367C98.2546 19.2914 81.8289 22.0501 74.0706 39.7555C69.9099 49.2522 68.2297 61.6902 69.564 73.0421C70.9871 85.2013 75.9583 96.5147 84.7642 107.645C96.4954 122.487 93.2241 139.952 76.2252 153.226C67.6269 159.954 58.2577 165.222 48.6217 170.528C40.3199 175.065 31.7315 179.765 26.5428 187.099C23.1819 192.121 21.0517 197.826 20.3165 203.776Z" fill="#F2F2F2"/>
</svg>
