<svg width="245" height="199" viewBox="0 0 245 199" fill="none" xmlns="http://www.w3.org/2000/svg">
<path fill-rule="evenodd" clip-rule="evenodd" d="M133.344 194.685C131.923 196.057 130.234 197.144 128.375 197.885C126.516 198.625 124.524 199.004 122.513 199C120.502 199.004 118.51 198.625 116.651 197.885C114.792 197.145 113.104 196.057 111.684 194.686L111.682 194.685L18.726 105.129L18.7243 105.127C12.7689 99.4226 8.04779 92.6367 4.83393 85.1627C1.62051 77.6897 -0.0223727 69.6769 0.000238151 61.5884C-0.0227523 53.4994 1.61905 45.4861 4.83078 38.012C8.04306 30.5366 12.7622 23.7488 18.7156 18.0414C30.7104 6.50734 46.9659 0.0278708 63.9156 0.0278708C80.8659 0.0278708 97.1218 6.50776 109.117 18.0425L109.118 18.0436L122.504 30.9349L135.877 18.0482L135.879 18.0463C141.801 12.3071 148.845 7.75658 156.606 4.65872C164.365 1.56122 172.685 -0.0222338 181.085 0.000235823C189.484 -0.0203262 197.803 1.56393 205.562 4.66127C213.321 7.75865 220.365 12.3075 226.287 18.0442C232.239 23.751 236.957 30.5378 240.169 38.012C243.381 45.4853 245.022 53.4977 245 61.5858C245.022 69.6742 243.38 77.6869 240.167 85.1603C236.955 92.6338 232.237 99.4201 226.285 105.126L226.283 105.128L133.344 194.685ZM63.9113 20.72L64.9856 20.7221C70.189 20.8365 75.3292 21.8757 80.1466 23.7909C85.2924 25.8365 89.9694 28.8418 93.9082 32.6338L122.505 60.1805L151.092 32.6332L151.095 32.6307C155.026 28.8292 159.701 25.8173 164.847 23.7687C169.993 21.7201 175.509 20.6755 181.077 20.6949L181.084 20.6949L181.092 20.6949C186.658 20.6765 192.173 21.7217 197.317 23.7703C202.462 25.8188 207.135 28.8302 211.065 32.6307L211.07 32.6356C215.015 36.4239 218.142 40.929 220.269 45.8904C222.396 50.8518 223.481 56.1708 223.461 61.5394L223.461 61.5535C223.48 66.9208 222.395 72.2382 220.268 77.1981C218.141 82.1581 215.014 86.6619 211.07 90.4492L211.068 90.4517L122.513 175.792L33.9319 90.4764L33.9297 90.4743C29.9856 86.6869 26.8594 82.1832 24.7324 77.2232C22.6055 72.2632 21.52 66.9457 21.5391 61.5785L21.5391 61.5644C21.5189 56.1958 22.6038 50.8769 24.7308 45.9155C26.8578 40.9541 29.9846 36.449 33.9297 32.6607L33.9328 32.6578C37.8684 28.8627 42.543 25.8547 47.6875 23.8062C52.832 21.7578 58.3455 20.709 63.9113 20.72Z" fill="#F2F2F2"/>
</svg>
