<svg width="195" height="195" viewBox="0 0 195 195" fill="none" xmlns="http://www.w3.org/2000/svg">
<path d="M192.313 179.389L151.393 138.472C163.609 123.372 170.265 104.534 170.246 85.1116C170.219 62.5452 161.242 40.9108 145.283 24.9548C129.324 8.99874 107.687 0.024161 85.1185 0C62.5511 0.0241654 40.9149 8.99904 24.9573 24.9553C8.99975 40.9116 0.0241673 62.546 0 85.1116C0.0169129 107.683 8.989 129.325 24.9471 145.289C40.9052 161.253 62.5455 170.233 85.1185 170.26C104.542 170.279 123.382 163.623 138.483 151.408L179.403 192.325C181.115 194.037 183.437 194.999 185.858 195C188.279 194.999 190.601 194.037 192.313 192.325C193.165 191.477 193.84 190.469 194.302 189.359C194.763 188.249 195 187.059 195 185.857C195 184.655 194.763 183.465 194.302 182.355C193.84 181.245 193.165 180.237 192.313 179.389ZM18.2599 85.1116C18.2792 67.387 25.3294 50.3938 37.8637 37.8606C50.3979 25.3274 67.3924 18.2778 85.1185 18.2584C102.846 18.2753 119.843 25.3239 132.379 37.8574C144.915 50.3909 151.967 67.3854 151.986 85.1116C151.979 102.152 145.445 118.542 133.726 130.913C133.151 131.272 132.618 131.694 132.138 132.173C131.659 132.653 131.237 133.186 130.878 133.761C118.505 145.479 102.114 152.013 85.0728 152.02C67.3452 151.988 50.3541 144.926 37.8282 132.382C25.3022 119.838 18.2647 102.838 18.2599 85.1116Z" fill="#F2F2F2"/>
</svg>
