<svg aria-hidden="true" style="position: absolute; width: 0; height: 0; overflow: hidden;" version="1.1" xmlns="http://www.w3.org/2000/svg" xmlns:xlink="http://www.w3.org/1999/xlink">
<defs>
<symbol id="icon-cart" viewBox="0 0 32 32">
<title>cart</title>
<path d="M10.012 23.309h18.584c0.365 0.001 0.715 0.152 0.973 0.42s0.404 0.631 0.406 1.010c0 0.381-0.146 0.746-0.405 1.015s-0.611 0.42-0.978 0.42h-19.267c-0.488-0.001-0.958-0.186-1.323-0.522s-0.599-0.799-0.657-1.301c-1.249-10.752-2.578-18.279-2.591-18.357l-0.011-0.076c-0.127-1.056-0.206-2.024-1.253-2.574-0.647-0.337-1.783-0.464-2.13-0.481-0.366-0.018-0.711-0.186-0.958-0.467s-0.376-0.653-0.359-1.033c0.018-0.38 0.181-0.737 0.453-0.993s0.63-0.388 0.996-0.37c0.198 0.010 1.965 0.113 3.25 0.788 1.864 0.979 2.491 2.739 2.744 4.738l0.002 0.012 0 0c0.114 0.673 1.341 7.741 2.524 17.768zM31.541 4.111c0.364 0.332 0.6 0.791 0.662 1.29 0 2.786-0.023 4.436-0.381 6.905-0.372 2.557-0.691 4.373-1.574 7.646-0.161 0.356-0.417 0.658-0.737 0.869s-0.691 0.323-1.071 0.324l-15.648 0.686c-0.367 0-0.719-0.151-0.978-0.42s-0.405-0.634-0.405-1.015c0-0.381 0.146-0.746 0.405-1.015s0.611-0.42 0.978-0.42l15.151-0.686c0.628-2.456 0.805-3.852 1.112-5.968 0.287-1.974 0.333-3.401 0.479-5.842h-18.588c-0.367 0-0.719-0.151-0.978-0.42s-0.405-0.634-0.405-1.015c0-0.381 0.146-0.746 0.405-1.015s0.611-0.42 0.978-0.42h19.277c0.485 0.001 0.953 0.184 1.317 0.517zM11.19 31.873c1.165 0 2.109-0.98 2.109-2.189s-0.944-2.189-2.109-2.189-2.109 0.98-2.109 2.189c0 1.209 0.944 2.189 2.109 2.189zM28.827 29.684c0 1.209-0.944 2.189-2.109 2.189s-2.109-0.98-2.109-2.189c0-1.209 0.944-2.189 2.109-2.189s2.109 0.98 2.109 2.189z"></path>
</symbol>
<symbol id="icon-compare" viewBox="0 0 30 32">
<title>compare</title>
<path d="M28.467 3.401h-26.789c-0.445 0-0.871-0.179-1.186-0.498s-0.492-0.751-0.492-1.203 0.177-0.884 0.492-1.203c0.315-0.319 0.742-0.498 1.186-0.498h26.789c0.445 0 0.871 0.179 1.186 0.498s0.492 0.751 0.492 1.203-0.177 0.884-0.492 1.203c-0.315 0.319-0.741 0.498-1.186 0.498zM1.678 11.749h26.789c0.445 0 0.871 0.179 1.186 0.498s0.492 0.751 0.492 1.203-0.177 0.884-0.492 1.203c-0.315 0.319-0.741 0.498-1.186 0.498h-26.789c-0.445 0-0.871-0.179-1.186-0.498s-0.492-0.751-0.492-1.203 0.177-0.884 0.492-1.203c0.315-0.319 0.742-0.498 1.186-0.498zM28.503 23.478h-3.595v-3.593c0-0.436-0.173-0.854-0.482-1.163s-0.726-0.481-1.161-0.481-0.853 0.173-1.161 0.481c-0.308 0.308-0.482 0.726-0.482 1.163v3.593h-3.595c-0.435 0-0.853 0.173-1.161 0.481s-0.482 0.726-0.482 1.162 0.173 0.854 0.482 1.163c0.308 0.308 0.726 0.481 1.161 0.481h3.595v3.592c0 0.436 0.173 0.854 0.482 1.163s0.726 0.481 1.161 0.481 0.853-0.173 1.161-0.481c0.308-0.308 0.482-0.726 0.482-1.163v-3.592h3.595c0.435 0 0.853-0.173 1.161-0.481s0.482-0.726 0.482-1.163-0.173-0.854-0.482-1.162c-0.308-0.308-0.726-0.481-1.161-0.481zM1.679 23.498h10.709c0.445 0 0.872 0.171 1.187 0.475s0.492 0.717 0.492 1.148-0.177 0.844-0.492 1.148c-0.315 0.304-0.742 0.475-1.187 0.475h-10.709c-0.445 0-0.872-0.171-1.187-0.475s-0.492-0.717-0.492-1.148 0.177-0.844 0.492-1.148c0.315-0.304 0.742-0.475 1.187-0.475z"></path>
</symbol>
<symbol id="icon-head" viewBox="0 0 31 32">
<title>head</title>
<path d="M28.673 32h-26.5c-0.3 0-0.596-0.059-0.871-0.174s-0.524-0.283-0.73-0.495c-0.196-0.203-0.348-0.444-0.446-0.706s-0.139-0.541-0.122-0.82c0.112-1.783 0.607-3.31 1.471-4.527 1.118-1.579 2.71-2.45 4.113-3.218 1.326-0.726 2.51-1.394 3.577-2.226 1.788-1.396 1.089-2.281 0.752-2.706-1.586-2.006-2.485-4.077-2.75-6.332-0.25-2.113 0.062-4.363 0.851-6.172 1.276-2.913 3.961-4.599 7.365-4.623h0.164c3.356 0.025 6.098 1.756 7.351 4.628 0.784 1.808 1.093 4.055 0.851 6.165-0.262 2.255-1.154 4.326-2.724 6.33-0.309 0.394-1.031 1.317 0.743 2.715 1.058 0.828 2.229 1.501 3.545 2.226s2.978 1.64 4.080 3.221c0.851 1.218 1.344 2.741 1.456 4.521 0.017 0.279-0.024 0.558-0.122 0.82s-0.249 0.503-0.445 0.707c-0.207 0.212-0.457 0.381-0.733 0.495s-0.574 0.174-0.875 0.172zM2.915 29.241h25.021c-0.106-0.857-0.411-1.679-0.893-2.404-0.736-1.051-1.957-1.724-3.136-2.375-1.371-0.757-2.704-1.517-3.927-2.483-2.411-1.902-2.88-4.406-1.215-6.531 1.252-1.597 1.958-3.222 2.163-4.965 0.19-1.63-0.050-3.418-0.642-4.782-1.101-2.537-3.455-2.932-4.76-2.942h-0.119c-1.308 0.010-3.665 0.406-4.778 2.946-0.597 1.363-0.838 3.148-0.647 4.777 0.204 1.745 0.918 3.368 2.181 4.965 1.683 2.13 1.214 4.636-1.225 6.541-1.234 0.965-2.578 1.721-3.961 2.483-1.191 0.651-2.424 1.325-3.168 2.378-0.482 0.721-0.788 1.539-0.893 2.393z"></path>
</symbol>
<symbol id="icon-heart" viewBox="0 0 39 32">
<title>heart</title>
<path d="M21.442 31.306l14.945-14.401c0.957-0.918 1.716-2.009 2.232-3.211s0.781-2.49 0.777-3.791c0.004-1.301-0.26-2.589-0.777-3.791s-1.275-2.293-2.232-3.211c-0.952-0.922-2.085-1.654-3.333-2.152s-2.585-0.753-3.936-0.75c-1.351-0.004-2.689 0.251-3.936 0.749s-2.381 1.23-3.333 2.153l-2.151 2.073-2.153-2.073c-1.929-1.855-4.543-2.897-7.269-2.897s-5.34 1.042-7.268 2.897c-0.957 0.918-1.716 2.009-2.233 3.211s-0.78 2.49-0.777 3.791c-0.004 1.301 0.261 2.589 0.777 3.791s1.276 2.293 2.234 3.21l14.948 14.401c0.228 0.22 0.5 0.395 0.799 0.514s0.619 0.18 0.943 0.179c0.323 0.001 0.644-0.060 0.943-0.179s0.571-0.294 0.799-0.515zM10.277 3.332l0.173 0c0.837 0.018 1.663 0.186 2.438 0.493 0.827 0.329 1.58 0.812 2.213 1.422l4.598 4.43 4.597-4.43c0.632-0.611 1.384-1.096 2.211-1.425s1.715-0.497 2.61-0.494h0.002c0.895-0.003 1.782 0.165 2.609 0.495s1.579 0.814 2.211 1.425l0.001 0.001c0.634 0.609 1.137 1.334 1.479 2.131s0.517 1.653 0.513 2.516v0.002c0.003 0.863-0.171 1.718-0.513 2.516s-0.845 1.522-1.479 2.131l-0 0-14.24 13.723-14.245-13.719c-0.634-0.609-1.137-1.333-1.479-2.131s-0.517-1.653-0.514-2.516v-0.002c-0.003-0.863 0.171-1.719 0.513-2.516s0.845-1.522 1.479-2.131l0-0c0.633-0.61 1.385-1.094 2.212-1.423s1.714-0.498 2.609-0.496z"></path>
</symbol>
<symbol id="icon-search" viewBox="0 0 32 32">
<title>search</title>
<path d="M31.559 29.438l-6.715-6.715c2.005-2.478 3.097-5.569 3.094-8.757-0.004-3.703-1.478-7.253-4.096-9.872s-6.17-4.091-9.873-4.095c-3.703 0.004-7.254 1.477-9.873 4.095s-4.092 6.169-4.096 9.872c0.003 3.704 1.475 7.256 4.094 9.875s6.17 4.093 9.874 4.098c3.187 0.003 6.279-1.089 8.757-3.094l6.715 6.715c0.281 0.281 0.662 0.439 1.059 0.439s0.778-0.158 1.059-0.439c0.14-0.139 0.251-0.305 0.326-0.487s0.115-0.377 0.115-0.575-0.039-0.393-0.115-0.575c-0.076-0.182-0.187-0.348-0.326-0.487zM2.997 13.967c0.003-2.909 1.16-5.697 3.217-7.754s4.846-3.214 7.755-3.217c2.909 0.003 5.698 1.159 7.756 3.216s3.214 4.846 3.218 7.755c-0.001 2.796-1.073 5.486-2.997 7.516-0.094 0.059-0.182 0.128-0.261 0.207s-0.148 0.166-0.207 0.261c-2.030 1.923-4.72 2.995-7.517 2.996-2.909-0.005-5.697-1.164-7.753-3.223s-3.21-4.848-3.211-7.757z"></path>
</symbol>
</defs>
</svg>
