<svg width="239" height="237" viewBox="0 0 239 237" fill="none" xmlns="http://www.w3.org/2000/svg">
<path fill-rule="evenodd" clip-rule="evenodd" d="M74.1523 172.63H211.787C214.491 172.639 217.083 173.757 218.996 175.74C220.909 177.724 221.989 180.412 222 183.218C222 186.038 220.921 188.742 219 190.735C217.079 192.729 214.473 193.849 211.756 193.849H69.0612C65.4494 193.845 61.9639 192.47 59.2616 189.983C56.5594 187.496 54.8274 184.069 54.3922 180.348C45.1422 100.714 35.302 44.9692 35.1995 44.3952L35.1175 43.8318C34.175 36.0076 33.5913 28.8432 25.8368 24.7717C21.0427 22.2735 12.6326 21.3379 10.0614 21.2103C7.34911 21.0781 4.79837 19.8336 2.9697 17.7506C1.1411 15.6675 0.184192 12.9162 0.309362 10.1014C0.444599 7.28643 1.65135 4.6424 3.66446 2.75063C5.67756 0.858806 8.33228 -0.125877 11.0448 0.0129102C12.5096 0.0873324 25.6011 0.852706 35.1175 5.84912C48.9261 13.0992 53.5665 26.1318 55.4411 40.9403L55.4568 41.0326L55.457 41.0338C56.3033 46.0213 65.3915 98.3658 74.1523 172.63ZM233.598 30.449C236.295 32.9115 238.038 36.3078 238.5 40.0048C238.5 60.6388 238.331 72.8577 235.679 91.1464C232.927 110.085 230.559 123.536 224.022 147.776C222.828 150.416 220.935 152.648 218.564 154.212C216.194 155.776 213.443 156.608 210.633 156.61L94.7436 161.687C92.0268 161.687 89.4213 160.567 87.5003 158.573C85.5792 156.58 84.4999 153.876 84.4999 151.057C84.4999 148.237 85.5792 145.533 87.5003 143.54C89.4213 141.546 92.0268 140.426 94.7436 140.426L206.956 135.349C211.608 117.158 212.92 106.821 215.191 91.1464C217.314 76.5264 217.657 65.9542 218.74 47.8821H81.0743C78.3575 47.8821 75.752 46.7621 73.8309 44.7684C71.9099 42.7748 70.8306 40.0709 70.8306 37.2515C70.8306 34.432 71.9099 31.728 73.8309 29.7343C75.752 27.7407 78.3575 26.6208 81.0743 26.6208H223.841C227.433 26.6259 230.901 27.9865 233.598 30.449ZM82.8783 236.061C91.506 236.061 98.5 228.803 98.5 219.849C98.5 210.896 91.506 203.637 82.8783 203.637C74.2507 203.637 67.2566 210.896 67.2566 219.849C67.2566 228.803 74.2507 236.061 82.8783 236.061ZM213.5 219.849C213.5 228.803 206.506 236.061 197.878 236.061C189.251 236.061 182.257 228.803 182.257 219.849C182.257 210.896 189.251 203.637 197.878 203.637C206.506 203.637 213.5 210.896 213.5 219.849Z" fill="#F2F2F2"/>
</svg>
